PathFileType	4	(X/Y/Z)	c:/Users/goper/Files/vsCode/490R/osim_files/C06/C06_Slow_04.trc
DataRate	CameraRate	NumFrames	NumMarkers	Units                	OrigDataRate	OrigDataStartFrame	OrigNumFrames
250.00	250.00	9	36	mm	250.0	2058	3292
                Frame#	Time	LPSIS			LASIS			LTH1			LTH2			LTH3			LTH4			LLFE			LMFE			LSH1			LSH2			LSH3			LSH4			LLMAL			LMMAL			LCAL			LMTP5			LTOE			LMTP1			RPSIS			RASIS			RTH1			RTH2			RTH3			RTH4			RLFE			RMFE			RSH1			RSH2			RSH3			RSH4			RLMAL			RMMAL			RCAL			RMTP1			RTOE			RMTP5		
		X1	Y1	Z1	X2	Y2	Z2	X3	Y3	Z3	X4	Y4	Z4	X5	Y5	Z5	X6	Y6	Z6	X7	Y7	Z7	X8	Y8	Z8	X9	Y9	Z9	X10	Y10	Z10	X11	Y11	Z11	X12	Y12	Z12	X13	Y13	Z13	X14	Y14	Z14	X15	Y15	Z15	X16	Y16	Z16	X17	Y17	Z17	X18	Y18	Z18	X19	Y19	Z19	X20	Y20	Z20	X21	Y21	Z21	X22	Y22	Z22	X23	Y23	Z23	X24	Y24	Z24	X25	Y25	Z25	X26	Y26	Z26	X27	Y27	Z27	X28	Y28	Z28	X29	Y29	Z29	X30	Y30	Z30	X31	Y31	Z31	X32	Y32	Z32	X33	Y33	Z33	X34	Y34	Z34	X35	Y35	Z35	X36	Y36	Z36

2058	8.22800	-314.09033	999.64471	232.34950	-488.98727	976.09644	333.94235	-393.04013	780.94891	404.64261	-391.66623	718.15430	398.83206	-465.69724	775.35449	381.87503	-454.42252	714.18463	378.34949	-346.63297	471.18192	339.01596	-325.84479	461.73364	223.94841	-260.13336	372.62662	358.86264	-259.43719	329.36191	352.62653	-323.31985	365.47427	350.69543	-311.85977	323.17865	346.48090	-232.98470	94.59850	292.06439	-237.92558	118.78903	217.86427	-160.69072	73.92321	249.93977	-337.81262	31.38916	311.75012	-388.16888	50.60516	240.82771	-355.81143	36.03562	198.41040	-311.32999	994.82965	161.27530	-492.23553	978.39008	96.60207	-468.48975	774.80847	7.47873	-503.95544	722.23676	9.29171	-533.98663	810.69629	24.25151	-559.80206	753.43091	22.92299	-629.05328	487.35678	54.10356	-652.91565	503.08435	161.41811	-587.37097	404.26938	41.88345	-597.88434	357.63913	39.76165	-648.00659	408.99619	42.67238	-649.75153	361.80972	41.51795	-666.20044	108.82532	77.48833	-682.47729	138.75339	152.50447	-612.59326	74.45259	133.86841	0.00000	0.00000	0.00000	-832.63055	98.94421	90.92712	-782.70447	62.97835	36.63422
2059	8.23200	-318.39453	998.63837	231.68967	-493.39517	975.33282	333.71915	-396.23044	780.68469	404.53815	-394.60345	717.91290	398.78680	-468.83487	774.63940	381.95816	-457.36118	713.52277	378.45941	-348.03503	471.09579	339.14838	-327.39136	461.68097	224.10442	-260.93616	372.98770	358.85870	-260.20129	329.61670	352.56107	-324.36981	365.59558	351.11240	-312.54871	323.26544	346.70560	-233.10330	94.73871	292.11044	-238.19069	119.04803	217.95114	-160.74057	74.04468	249.95395	-337.85428	31.33530	311.75812	-388.19186	50.55793	240.84502	-355.82867	36.04202	198.43802	-315.81085	993.62445	160.69768	-496.80844	977.48242	96.30482	-472.71454	773.56122	7.32782	-508.31680	721.04126	9.08952	-538.31873	809.27734	24.18963	-563.92499	752.00043	22.73149	-633.50433	486.20941	54.12624	-659.07825	502.73895	163.04288	-593.46143	402.46454	42.04348	-604.94159	356.00244	39.99781	-654.39429	408.37949	42.84808	-656.68896	361.19864	41.56640	-679.76196	108.66486	77.31377	-695.48859	139.29840	152.44090	-626.79858	72.85332	133.44623	0.00000	0.00000	0.00000	-846.14935	102.94868	91.43722	-797.64282	65.70345	36.94086
2060	8.23600	-322.75735	997.58057	231.06520	-497.55972	974.50140	333.49161	-399.52667	780.41687	404.42075	-397.50278	717.63397	398.75870	-471.94748	773.73151	381.42477	-460.31241	712.90668	378.57837	-349.53275	471.03348	339.28601	-329.04620	461.56784	224.19028	-261.97031	373.29852	358.78677	-261.08139	329.92343	352.54163	-325.79532	365.60498	351.94583	-313.31793	323.33252	346.87772	-233.25963	94.94295	292.15146	-238.38463	119.31659	218.01938	-160.81982	74.16134	250.00449	-337.86328	31.30295	311.77652	-388.25104	50.49200	240.87018	-355.86246	36.05608	198.46451	-320.31946	992.35803	160.08401	-501.41815	976.55511	95.96909	-476.88678	772.35175	7.23880	-512.03204	719.60846	9.00159	-542.68732	807.80676	24.07271	-567.62280	750.26422	22.78946	-638.01862	485.11859	54.18380	-663.25317	501.71106	163.07059	-599.58228	400.66837	42.12219	-611.83850	354.40781	40.30597	-660.09497	407.71286	42.31525	-664.25427	361.15982	41.19507	-693.08734	108.63947	77.13883	-707.20715	139.34491	152.29239	-640.75470	71.41756	132.97081	0.00000	0.00000	0.00000	-859.52069	107.09953	92.03159	-812.07477	68.67095	37.26269
2061	8.24000	-327.03235	996.53760	230.38872	-501.79370	973.68713	333.26459	-402.81393	780.13806	404.28958	-400.47171	717.36383	398.71973	-475.52496	773.15179	381.96143	-463.31113	712.25592	378.70135	-351.11938	470.90268	339.34589	-330.73904	461.51639	224.26833	-262.95444	373.61145	358.74231	-261.91812	330.26505	352.52615	-326.80225	365.65295	352.11050	-313.83334	323.50555	347.15796	-233.36800	95.16756	292.12811	-238.64481	119.58330	218.03363	-160.89488	74.29743	249.99281	-337.87903	31.28305	311.78909	-388.27505	50.47535	240.86670	-355.87979	36.04326	198.49815	-324.77542	991.10376	159.43845	-506.00711	975.54535	95.64520	-481.08508	771.03918	7.16020	-515.87738	718.22272	8.86405	-546.90100	806.27692	23.91081	-572.13330	748.70630	22.58136	-642.65668	483.93768	54.24572	-667.26190	500.74234	163.05841	-605.74854	398.98584	42.25987	-618.65344	352.88577	40.55280	-666.40552	406.96835	42.46743	-670.99860	360.53552	41.16336	-706.11041	108.79708	77.03395	-719.10547	139.84351	152.20757	-654.68250	70.36264	132.28111	0.00000	0.00000	0.00000	-872.28052	111.21494	92.80788	-826.27838	71.66090	37.61904
2062	8.24400	-331.35956	995.48004	229.67305	-506.19214	972.78003	332.95963	-406.14459	779.79962	404.18576	-403.49069	717.08173	398.67371	-478.77197	772.45544	381.99646	-466.37222	711.55365	378.79834	-352.71158	470.73895	339.40881	-332.50214	461.41647	224.32492	-264.09598	373.93973	358.60538	-262.79956	330.53564	352.40753	-328.25443	365.56375	352.83719	-315.09494	323.46130	347.02859	-233.52271	95.41625	292.10477	-238.95009	119.87025	217.97107	-160.97560	74.46990	249.95822	-337.89908	31.27843	311.77405	-388.25034	50.47205	240.82962	-355.90329	36.02789	198.49881	-329.20581	989.87329	158.75668	-510.70761	974.59827	95.37405	-485.26538	769.64917	7.06251	-520.21198	716.71234	8.66966	-551.10468	804.55701	23.88332	-575.83899	746.88177	22.01554	-647.24768	482.77902	54.25895	-671.29132	499.87643	163.12708	-611.85657	397.34784	42.35695	-625.81000	351.42685	40.52206	-672.01202	406.29355	41.92179	-677.74860	359.91507	41.11990	-718.78540	109.22839	77.06223	-730.68018	140.35124	152.11481	-667.83734	69.41039	132.33961	0.00000	0.00000	0.00000	-884.62390	115.32533	93.42992	-839.98785	74.78057	38.05464
2063	8.24800	-335.65146	994.41504	228.98074	-510.56934	971.87415	332.61703	-409.45056	779.45691	404.10007	-406.55319	716.70789	398.61557	-482.21500	771.65997	382.04968	-469.46899	710.89832	378.90753	-354.44702	470.60300	339.37744	-334.39035	461.26468	224.32088	-265.18970	374.23682	358.47708	-263.86725	330.70572	352.53934	-328.70648	365.59790	351.48419	-316.15295	323.48636	347.03751	-233.66855	95.67014	292.03012	-239.26401	120.14310	217.88988	-161.01961	74.66962	249.92523	-337.89325	31.29212	311.75656	-388.23605	50.52659	240.79631	-355.94592	36.01505	198.52100	-333.68918	988.58588	158.10167	-515.36108	973.62183	94.96694	-489.33182	768.27588	7.00146	-523.60046	715.27039	8.66953	-555.46100	802.96674	23.72113	-580.13904	745.17725	22.27520	-651.85004	481.66440	54.32011	-675.50262	499.05667	163.23212	-617.98547	395.75177	42.41557	-632.72687	350.11459	40.67313	-678.31952	405.69391	42.10968	-684.47705	359.41559	41.03637	-731.18134	109.47835	76.82780	-742.14532	141.42644	151.85872	-680.57703	68.70066	131.62433	0.00000	0.00000	0.00000	-896.78625	119.55933	94.16279	-853.17065	77.82072	38.63059
2064	8.25200	-340.03537	993.31934	228.29118	-514.15387	970.91479	332.67770	-412.80493	779.09143	403.99438	-409.58954	716.32996	398.48700	-485.50046	770.96222	382.17520	-472.46085	710.21338	379.03641	-356.33658	470.37708	339.33646	-336.34521	461.13766	224.27066	-266.59125	374.45764	358.29218	-264.93140	331.07773	352.16119	-329.91183	365.47641	351.46188	-316.79517	323.56989	347.15836	-233.84796	95.98454	291.93082	-239.60429	120.37616	217.77408	-161.10342	74.83212	249.86832	-337.93066	31.30787	311.71570	-388.34137	50.47416	240.81882	-355.98495	36.00116	198.53839	-338.20490	987.31854	157.39604	-519.97906	972.59253	94.64080	-493.38870	766.83124	6.87868	-527.51715	713.54059	8.70846	-559.82617	800.83557	22.98677	-583.74084	743.12378	22.25476	-656.56287	480.52109	54.31814	-679.60010	498.27472	163.33665	-624.12726	394.24445	42.53605	-639.60059	348.85257	40.72031	-683.94507	405.15244	41.71109	-691.18573	358.99655	41.07850	-743.23322	110.01137	76.75326	-753.04559	142.11661	151.86945	-693.12982	68.06836	131.14142	0.00000	0.00000	0.00000	-908.42743	123.73213	94.91597	-866.03143	80.77960	38.99684
2065	8.25600	-344.40915	992.23468	227.57079	-518.29645	970.03412	332.53909	-416.02057	778.57538	404.14905	-412.54797	716.01337	398.44333	-488.57770	769.97223	381.77026	-475.51340	709.48224	379.16245	-358.17896	470.17764	339.25443	-338.39880	460.94775	224.18829	-267.87805	374.68396	358.09003	-266.04636	331.27924	351.99097	-331.38422	365.43491	351.41754	-318.41864	323.36917	346.91495	-234.08134	96.30395	291.83469	-239.93542	120.59686	217.66055	-161.22690	74.98457	249.83885	-337.92349	31.32650	311.72205	-388.39066	50.43052	240.82042	-356.01730	35.95755	198.54460	-342.79059	985.96588	156.70010	-524.65527	971.53088	94.33744	-497.50128	765.38354	6.81911	-531.62695	711.81946	8.52292	-564.14655	799.21979	23.13390	-587.72351	741.16138	22.12690	-661.29315	479.40424	54.40345	-683.85779	496.36142	163.10030	-630.23303	392.81448	42.60040	-646.34937	347.72415	40.56978	-690.27271	404.87683	41.86023	-697.94214	358.65546	41.02321	-754.90179	110.69977	76.70070	-763.47559	142.91461	151.86810	-705.49365	67.38772	130.72090	0.00000	0.00000	0.00000	-919.95911	128.07254	95.66589	-878.55292	83.98147	39.48806
2066	8.26000	-348.80438	991.08246	226.81030	-522.42126	969.04236	332.36627	-419.42807	778.12378	403.94901	-415.61340	715.61047	398.32520	-492.17221	769.36365	382.36273	-478.58472	708.78967	379.30338	-360.25162	469.89111	339.13440	-340.60822	460.73956	224.06541	-269.49133	374.82498	357.85565	-267.36414	331.30649	351.83249	-332.69418	365.23831	351.25482	-319.55994	323.27997	346.83719	-234.29062	96.62964	291.72238	-240.29114	120.84527	217.52126	-161.32893	75.21037	249.79668	-337.91635	31.29136	311.68433	-388.52042	50.33848	240.87828	-356.06012	35.95474	198.53773	-347.41043	984.57751	155.96176	-529.29340	970.46613	93.93783	-501.56656	763.90216	6.73609	-534.94727	710.12958	8.53889	-568.53876	797.47571	23.10692	-592.15045	739.38318	21.49663	-666.07019	478.36938	54.45620	-688.22375	495.69785	163.28963	-636.37067	391.35370	42.75141	-653.38062	346.26898	41.08094	-695.96661	404.38870	41.54822	-704.60492	358.42136	40.94854	-766.21265	111.41022	76.64484	-773.93915	143.49773	151.96255	-717.36499	66.89648	130.30450	0.00000	0.00000	0.00000	-930.68909	131.90683	96.62545	-890.72357	87.61961	40.12455
